# xmcd
#
# Track frame offsets:
#	150
#	11762
#	28710
#	45092
#	57607
#	78497
#	93602
#	107470
#	127242
#	158145
#	175084
#
# Disc length: 2550
#
# Revision: 1
# Processed by: cddbd v1.5.1PL0 Copyright (c) Steve Scherf et al.
# Submitted via: MusicManager v6.0.0.0
# Normalized: r0:DSETVAR1
#
DISCID=8809f40b
DTITLE=Various Artist - The Best Music This Side Of Heaven
DYEAR=1900
DGENRE=country
TTITLE0=Diane Craig - Highway of the blues
TTITLE1=Rick Danko - All our past time
TTITLE2=Kevin Bowe - Land of Cain
TTITLE3=Willie Nelson - I guess I've come to live here in your eyes
TTITLE4=Bianca de Leon - Carlos
TTITLE5=Paul K and The Weatherman - Haunt me till I'm gone
TTITLE6=Greg Kihn - Anniversary of my broken heart
TTITLE7=Ghoultown - Killer in Texas
TTITLE8=Julian Sas - A light in the dark
TTITLE9=Freebo and Valerie Carter - It comes from the heart
TTITLE10=Steven McClintock - Loved by you
EXTD=
EXTT0=
EXTT1=
EXTT2=
EXTT3=
EXTT4=
EXTT5=
EXTT6=
EXTT7=
EXTT8=
EXTT9=
EXTT10=
PLAYORDER=
